<?xml version="1.0" encoding="utf-8"?>
<!-- Generator: Adobe Illustrator 16.0.0, SVG Export Plug-In . SVG Version: 6.00 Build 0)  -->
<!DOCTYPE svg PUBLIC "-//W3C//DTD SVG 1.1//EN" "http://www.w3.org/Graphics/SVG/1.1/DTD/svg11.dtd">
<svg version="1.1" id="Layer_1" xmlns="http://www.w3.org/2000/svg" xmlns:xlink="http://www.w3.org/1999/xlink" x="0px" y="0px"
	 width="89px" height="62px" viewBox="0 0 89 62" enable-background="new 0 0 89 62" xml:space="preserve">
<g>
	<path fill="#00579C" d="M62,35V14H41v34h21v-7H48v-6H62z M48,21h6v6h-6V21z"/>
	<polygon fill="#00579C" points="0,0 0,48 35,48 35,14 27,14 27,41 21,41 21,14 14,14 14,41 8,41 8,8 89,8 89,0 	"/>
	<path fill="#00579C" d="M68,48h13v6H0v8h89V14H68V48z M76,21h5v20h-5V21z"/>
</g>
</svg>
